<svg id="logo-lang" data-name="Logo lang" xmlns="http://www.w3.org/2000/svg" viewBox="0 0 4166.93 1190.55"><defs><style>.cls-1{fill:#FBFF9E;}.cls-1,.cls-2{fill-rule:evenodd;}.cls-2{fill:#B7DFFF;}</style></defs><polyline class="cls-1" points="793.7 595.28 793.7 1190.55 595.28 1190.55 595.28 595.28 594.82 581.74 593.43 568.26 591.13 554.91 587.92 541.74 583.82 528.83 578.85 516.22 573.03 503.99 566.39 492.18 558.96 480.85 550.77 470.05 541.87 459.84 532.29 450.26 522.08 441.36 511.28 433.17 499.95 425.74 488.14 419.1 475.9 413.28 463.3 408.31 450.39 404.21 437.22 401 423.87 398.7 410.39 397.31 396.85 396.85 383.31 397.31 369.83 398.7 356.48 401 343.32 404.21 330.4 408.31 317.8 413.28 305.56 419.1 293.75 425.74 282.42 433.17 271.63 441.36 261.42 450.26 251.83 459.84 242.93 470.05 234.74 480.85 227.31 492.18 220.67 503.99 214.85 516.22 209.88 528.83 205.78 541.74 202.58 554.91 200.27 568.26 198.89 581.74 198.43 595.28 198.43 1190.55 0 1190.55 0 595.28 0.48 575.8 1.91 556.38 4.29 537.05 7.63 517.85 11.89 498.85 17.09 480.08 23.2 461.58 30.21 443.41 38.1 425.6 46.86 408.2 56.46 391.25 66.88 374.8 78.1 358.87 90.08 343.52 102.8 328.77 116.23 314.66 130.34 301.23 145.09 288.51 160.45 276.52 176.37 265.31 192.83 254.89 209.78 245.29 227.18 236.53 244.98 228.63 263.15 221.63 281.65 215.51 300.43 210.32 319.43 206.05 338.62 202.72 357.95 200.34 377.38 198.9 396.85 198.43 416.32 198.9 435.75 200.34 455.08 202.72 474.27 206.05 493.28 210.32 512.05 215.51 530.54 221.63 548.72 228.63 566.52 236.53 583.92 245.29 600.87 254.89 617.33 265.31 633.26 276.52 648.61 288.51 663.36 301.23 677.47 314.66 690.9 328.77 703.62 343.52 715.61 358.87 726.82 374.8 737.24 391.25 746.84 408.2 755.6 425.6 763.49 443.41 770.5 461.58 776.61 480.08 781.81 498.85 786.08 517.85 789.4 537.05 791.79 556.38 793.22 575.8 793.7 595.28"/><polyline class="cls-2" points="2579.53 793.7 2579.53 198.43 2777.96 198.43 2777.96 793.7 2778.42 807.24 2779.81 820.72 2782.11 834.07 2785.32 847.24 2789.41 860.15 2794.38 872.75 2800.2 884.99 2806.84 896.8 2814.27 908.13 2822.46 918.93 2831.36 929.14 2840.94 938.72 2851.15 947.62 2861.95 955.81 2873.28 963.24 2885.11 969.88 2897.32 975.7 2909.94 980.67 2922.83 984.77 2936.01 987.98 2949.37 990.28 2962.83 991.67 2976.38 992.13 2989.93 991.67 3003.39 990.28 3016.75 987.98 3029.93 984.77 3042.82 980.67 3055.44 975.7 3067.68 969.88 3079.48 963.24 3090.82 955.81 3101.61 947.62 3111.82 938.72 3121.4 929.14 3130.3 918.93 3138.49 908.13 3145.92 896.8 3152.55 884.99 3158.39 872.75 3163.35 860.15 3167.44 847.24 3170.67 834.07 3172.96 820.72 3174.35 807.24 3174.81 793.7 3174.81 198.43 3373.23 198.43 3373.23 793.7 3372.75 813.17 3371.33 832.6 3368.95 851.93 3365.61 871.12 3361.35 890.13 3356.14 908.9 3350.04 927.4 3343.01 945.57 3335.13 963.38 3326.38 980.77 3316.76 997.72 3306.36 1014.18 3295.14 1030.11 3283.15 1045.46 3270.42 1060.21 3257.01 1074.32 3242.89 1087.75 3228.15 1100.47 3212.79 1112.46 3196.86 1123.67 3180.42 1134.09 3163.47 1143.69 3146.06 1152.45 3128.26 1160.35 3110.09 1167.36 3091.58 1173.46 3072.82 1178.66 3053.8 1182.93 3034.6 1186.26 3015.27 1188.64 2995.85 1190.08 2976.38 1190.55 2956.91 1190.08 2937.49 1188.64 2918.16 1186.26 2898.97 1182.93 2879.95 1178.66 2861.18 1173.46 2842.7 1167.36 2824.53 1160.35 2806.71 1152.45 2789.31 1143.69 2772.36 1134.09 2755.9 1123.67 2739.98 1112.46 2724.62 1100.47 2709.87 1087.75 2695.77 1074.32 2682.34 1060.21 2669.61 1045.46 2657.63 1030.11 2646.41 1014.18 2635.99 997.72 2626.39 980.77 2617.63 963.38 2609.74 945.57 2602.73 927.4 2596.62 908.9 2591.42 890.13 2587.16 871.12 2583.83 851.93 2581.44 832.6 2580.01 813.17 2579.53 793.7"/><polyline class="cls-1" points="1190.55 1190.55 1190.55 595.28 1388.98 595.28 1388.98 1190.55 1190.55 1190.55"/><polyline class="cls-1" points="1785.83 793.7 1785.83 0 1984.26 0 1984.26 793.7 1984.72 807.24 1986.1 820.72 1988.41 834.07 1991.62 847.24 1995.71 860.15 2000.68 872.75 2006.5 884.99 2013.14 896.8 2020.57 908.13 2028.76 918.93 2037.66 929.14 2047.24 938.72 2057.46 947.62 2068.25 955.81 2079.58 963.24 2091.39 969.88 2103.63 975.7 2116.23 980.67 2129.15 984.77 2142.31 987.98 2155.66 990.28 2169.14 991.67 2182.68 992.13 2182.68 1190.55 2163.21 1190.08 2143.78 1188.64 2124.45 1186.26 2105.26 1182.93 2086.26 1178.66 2067.48 1173.46 2048.99 1167.36 2030.81 1160.35 2013.01 1152.45 1995.61 1143.69 1978.66 1134.09 1962.2 1123.67 1946.28 1112.46 1930.92 1100.47 1916.17 1087.75 1902.07 1074.32 1888.63 1060.21 1875.91 1045.46 1863.93 1030.11 1852.71 1014.18 1842.29 997.72 1832.69 980.77 1823.93 963.38 1816.04 945.57 1809.03 927.4 1802.92 908.9 1797.72 890.13 1793.46 871.12 1790.13 851.93 1787.74 832.6 1786.31 813.17 1785.83 793.7"/><polyline class="cls-2" points="3770.08 1190.55 3770.08 595.28 3770.56 575.8 3771.98 556.38 3774.39 537.05 3777.71 517.85 3781.99 498.85 3787.18 480.08 3793.27 461.58 3800.3 443.41 3808.18 425.6 3816.94 408.2 3826.55 391.25 3836.98 374.8 3848.18 358.87 3860.17 343.52 3872.89 328.77 3886.33 314.66 3900.42 301.23 3915.19 288.51 3930.52 276.52 3946.45 265.31 3962.92 254.89 3979.88 245.29 3997.25 236.53 4015.08 228.63 4033.25 221.63 4051.73 215.51 4070.5 210.32 4089.52 206.05 4108.71 202.72 4128.04 200.34 4147.46 198.9 4166.93 198.43 4166.93 396.85 4153.38 397.31 4139.92 398.7 4126.57 401 4113.39 404.21 4100.49 408.31 4087.88 413.28 4075.66 419.1 4063.84 425.74 4052.5 433.17 4041.7 441.36 4031.49 450.26 4021.91 459.84 4013.01 470.05 4004.82 480.85 3997.39 492.18 3990.76 503.99 3984.95 516.22 3979.96 528.83 3975.88 541.74 3972.65 554.91 3970.35 568.26 3968.96 581.74 3968.51 595.28 3968.51 1190.55 3770.08 1190.55"/><polyline class="cls-1" points="1388.98 297.64 1388.5 307.36 1387.07 316.99 1384.71 326.44 1381.43 335.61 1377.26 344.41 1372.26 352.76 1366.46 360.58 1359.92 367.79 1352.7 374.33 1344.89 380.13 1336.54 385.14 1327.73 389.3 1318.57 392.58 1309.12 394.94 1299.49 396.37 1289.77 396.85 1280.04 396.37 1270.41 394.94 1260.97 392.58 1251.8 389.3 1243 385.14 1234.65 380.13 1226.83 374.33 1219.61 367.79 1213.07 360.58 1207.27 352.76 1202.27 344.41 1198.11 335.61 1194.83 326.44 1192.46 316.99 1191.03 307.36 1190.55 297.64 1191.03 287.91 1192.46 278.28 1194.83 268.84 1198.11 259.67 1202.27 250.87 1207.27 242.52 1213.07 234.7 1219.61 227.48 1226.83 220.94 1234.65 215.15 1243 210.14 1251.8 205.98 1260.97 202.7 1270.41 200.33 1280.04 198.9 1289.77 198.43 1299.49 198.9 1309.12 200.33 1318.57 202.7 1327.73 205.98 1336.54 210.14 1344.89 215.15 1352.7 220.94 1359.92 227.48 1366.46 234.7 1372.26 242.52 1377.26 250.87 1381.43 259.67 1384.71 268.84 1387.07 278.28 1388.5 287.91 1388.98 297.64"/></svg>