<svg id="logo-quadrat" data-name="Logo Quadrat" xmlns="http://www.w3.org/2000/svg" viewBox="0 0 2182.68 2182.68"><defs><style>.cls-1{fill:#B7DFFF;}.cls-1,.cls-2{fill-rule:evenodd;}.cls-2{fill:#FBFF9E;}</style></defs><polyline class="cls-1" points="0 595.27 0.48 575.8 1.91 556.38 4.29 537.04 7.63 517.85 11.89 498.85 17.09 480.08 23.2 461.58 30.21 443.41 38.1 425.6 46.86 408.2 56.46 391.25 66.88 374.8 78.09 358.87 90.08 343.51 102.8 328.77 116.23 314.66 130.34 301.23 145.09 288.5 160.45 276.52 176.37 265.31 192.83 254.88 209.78 245.28 227.18 236.53 244.98 228.63 263.15 221.62 281.65 215.51 300.42 210.32 319.43 206.05 338.62 202.72 357.95 200.34 377.38 198.9 396.85 198.42 416.32 198.9 435.75 200.34 455.08 202.72 474.27 206.05 493.28 210.32 512.05 215.51 530.54 221.62 548.72 228.63 566.52 236.53 583.92 245.28 600.87 254.88 617.33 265.31 633.25 276.52 648.61 288.5 663.36 301.23 677.46 314.66 690.9 328.77 703.62 343.51 715.61 358.87 726.82 374.8 737.24 391.25 746.84 408.2 755.6 425.6 763.49 443.41 770.5 461.58 776.61 480.08 781.81 498.85 786.07 517.85 789.4 537.04 791.79 556.38 793.22 575.8 793.7 595.27 793.7 1190.55 595.27 1190.55 595.27 595.27 594.81 581.74 593.43 568.26 591.12 554.91 587.92 541.74 583.82 528.83 578.85 516.22 573.03 503.99 566.39 492.18 558.96 480.85 550.77 470.05 541.87 459.84 532.28 450.26 522.07 441.36 511.28 433.17 499.95 425.74 488.14 419.1 475.9 413.28 463.3 408.31 450.38 404.21 437.22 401 423.87 398.7 410.39 397.31 396.85 396.85 383.31 397.31 369.83 398.7 356.48 401 343.32 404.21 330.4 408.31 317.8 413.28 305.56 419.1 293.75 425.74 282.42 433.17 271.63 441.36 261.41 450.26 251.83 459.84 242.93 470.05 234.74 480.85 227.31 492.18 220.67 503.99 214.85 516.22 209.88 528.83 205.78 541.74 202.57 554.91 200.27 568.26 198.89 581.74 198.42 595.27 198.42 1190.55 0 1190.55 0 595.27"/><polyline class="cls-2" points="595.27 1190.55 793.7 1190.55 793.7 1785.83 794.16 1799.37 795.55 1812.85 797.85 1826.2 801.06 1839.36 805.16 1852.28 810.13 1864.88 815.95 1877.12 822.59 1888.93 830.02 1900.26 838.21 1911.05 847.11 1921.26 856.69 1930.84 866.9 1939.75 877.7 1947.93 889.03 1955.37 900.84 1962.01 913.07 1967.83 925.68 1972.8 938.59 1976.9 951.76 1980.1 965.11 1982.41 978.59 1983.79 992.13 1984.25 1005.67 1983.79 1019.14 1982.41 1032.5 1980.1 1045.66 1976.9 1058.58 1972.8 1071.18 1967.83 1083.41 1962.01 1095.22 1955.37 1106.55 1947.93 1117.35 1939.75 1127.56 1930.84 1137.14 1921.26 1146.05 1911.05 1154.23 1900.26 1161.66 1888.93 1168.3 1877.12 1174.12 1864.88 1179.1 1852.28 1183.19 1839.36 1186.4 1826.2 1188.7 1812.85 1190.09 1799.37 1190.55 1785.83 1190.55 1190.55 1388.98 1190.55 1388.98 1785.83 1388.5 1805.3 1387.07 1824.73 1384.68 1844.06 1381.35 1863.25 1377.08 1882.26 1371.89 1901.03 1365.78 1919.52 1358.77 1937.7 1350.88 1955.5 1342.12 1972.9 1332.52 1989.85 1322.1 2006.31 1310.88 2022.23 1298.9 2037.59 1286.17 2052.34 1272.74 2066.44 1258.64 2079.88 1243.89 2092.6 1228.53 2104.58 1212.6 2115.8 1196.15 2126.22 1179.2 2135.82 1161.8 2144.58 1143.99 2152.47 1125.82 2159.48 1107.33 2165.59 1088.55 2170.79 1069.55 2175.05 1050.36 2178.38 1031.03 2180.77 1011.6 2182.2 992.13 2182.68 972.65 2182.2 953.23 2180.77 933.89 2178.38 914.71 2175.05 895.7 2170.79 876.93 2165.59 858.43 2159.48 840.26 2152.47 822.45 2144.58 805.05 2135.82 788.1 2126.22 771.65 2115.8 755.72 2104.58 740.37 2092.6 725.62 2079.88 711.51 2066.44 698.08 2052.34 685.36 2037.59 673.37 2022.23 662.16 2006.31 651.73 1989.85 642.14 1972.9 633.38 1955.5 625.48 1937.7 618.47 1919.52 612.36 1901.03 607.17 1882.26 602.9 1863.25 599.57 1844.06 597.19 1824.73 595.75 1805.3 595.27 1785.83 595.27 1190.55"/><polyline class="cls-1" points="1190.55 1190.55 1190.55 595.27 1388.98 595.27 1388.98 1190.55 1190.55 1190.55"/><polyline class="cls-1" points="1785.83 0 1984.25 0 1984.25 793.7 1984.72 807.24 1986.1 820.72 1988.4 834.07 1991.61 847.23 1995.71 860.15 2000.68 872.75 2006.5 884.99 2013.14 896.8 2020.57 908.13 2028.76 918.93 2037.66 929.14 2047.24 938.72 2057.45 947.62 2068.25 955.81 2079.58 963.24 2091.39 969.88 2103.63 975.7 2116.23 980.67 2129.14 984.77 2142.31 987.98 2155.66 990.28 2169.14 991.66 2182.68 992.13 2182.68 1190.55 2163.21 1190.07 2143.78 1188.64 2124.45 1186.26 2105.26 1182.92 2086.25 1178.66 2067.48 1173.46 2048.98 1167.35 2030.81 1160.34 2013 1152.45 1995.61 1143.69 1978.66 1134.09 1962.2 1123.67 1946.28 1112.46 1930.92 1100.47 1916.17 1087.75 1902.06 1074.32 1888.63 1060.21 1875.91 1045.46 1863.92 1030.1 1852.71 1014.18 1842.29 997.72 1832.69 980.77 1823.93 963.38 1816.04 945.57 1809.03 927.39 1802.92 908.9 1797.72 890.13 1793.45 871.12 1790.12 851.93 1787.74 832.6 1786.31 813.17 1785.83 793.7 1785.83 0"/><polyline class="cls-2" points="1785.83 1587.4 1786.31 1567.93 1787.74 1548.5 1790.12 1529.17 1793.45 1509.98 1797.72 1490.97 1802.92 1472.2 1809.03 1453.71 1816.04 1435.54 1823.93 1417.73 1832.69 1400.33 1842.29 1383.38 1852.71 1366.92 1863.92 1351 1875.91 1335.64 1888.63 1320.89 1902.06 1306.79 1916.17 1293.35 1930.92 1280.63 1946.28 1268.65 1962.2 1257.43 1978.66 1247.01 1995.61 1237.41 2013 1228.65 2030.81 1220.76 2048.98 1213.75 2067.48 1207.64 2086.25 1202.44 2105.26 1198.18 2124.45 1194.85 2143.78 1192.46 2163.21 1191.03 2182.68 1190.55 2182.68 1388.98 2169.14 1389.44 2155.66 1390.82 2142.31 1393.13 2129.14 1396.33 2116.23 1400.43 2103.63 1405.4 2091.39 1411.22 2079.58 1417.86 2068.25 1425.3 2057.45 1433.48 2047.24 1442.39 2037.66 1451.97 2028.76 1462.18 2020.57 1472.97 2013.14 1484.31 2006.5 1496.11 2000.68 1508.35 1995.71 1520.95 1991.61 1533.87 1988.4 1547.03 1986.1 1560.38 1984.72 1573.86 1984.25 1587.4 1984.25 2182.68 1785.83 2182.68 1785.83 1587.4"/><polyline class="cls-1" points="1388.98 297.63 1388.5 307.36 1387.07 316.99 1384.7 326.44 1381.42 335.6 1377.26 344.4 1372.26 352.75 1366.46 360.58 1359.92 367.79 1352.7 374.33 1344.88 380.13 1336.53 385.13 1327.73 389.3 1318.56 392.58 1309.12 394.94 1299.49 396.37 1289.76 396.85 1280.04 396.37 1270.41 394.94 1260.97 392.58 1251.8 389.3 1243 385.13 1234.65 380.13 1226.83 374.33 1219.61 367.79 1213.07 360.58 1207.27 352.75 1202.27 344.4 1198.1 335.6 1194.83 326.44 1192.46 316.99 1191.03 307.36 1190.55 297.63 1191.03 287.91 1192.46 278.28 1194.83 268.84 1198.1 259.67 1202.27 250.87 1207.27 242.52 1213.07 234.7 1219.61 227.48 1226.83 220.94 1234.65 215.14 1243 210.14 1251.8 205.98 1260.97 202.7 1270.41 200.33 1280.04 198.9 1289.76 198.42 1299.49 198.9 1309.12 200.33 1318.56 202.7 1327.73 205.98 1336.53 210.14 1344.88 215.14 1352.7 220.94 1359.92 227.48 1366.46 234.7 1372.26 242.52 1377.26 250.87 1381.42 259.67 1384.7 268.84 1387.07 278.28 1388.5 287.91 1388.98 297.63"/></svg>